HIERARCHY
ROOT Hips
{
	OFFSET -0.179506 -22.333345 2.821913
	CHANNELS 6 Xposition Yposition Zposition Zrotation Yrotation Xrotation 
	JOINT LeftUpLeg
	{
		OFFSET 6.951974 -9.140623 -0.681533
		CHANNELS 3 Zrotation Yrotation Xrotation
		JOINT LeftLeg
		{
			OFFSET 3.427654 -37.519855 -0.449580
			CHANNELS 3 Zrotation Yrotation Xrotation
			JOINT LeftFoot
			{
				OFFSET -1.359570 -39.796059 -4.369333
				CHANNELS 3 Zrotation Yrotation Xrotation
				JOINT LeftToe
				{
					OFFSET 2.635814 -5.579078 11.928840
					CHANNELS 3 Zrotation Yrotation Xrotation
					End Site
					{
						OFFSET 0.000000 0.000000 0.000000
					}
				}
			}
		}
	}
	JOINT RightUpLeg
	{
		OFFSET -6.767048 -9.052170 -0.431982
		CHANNELS 3 Zrotation Yrotation Xrotation
		JOINT RightLeg
		{
			OFFSET -3.829005 -38.256897 -0.885003
			CHANNELS 3 Zrotation Yrotation Xrotation
			JOINT RightFoot
			{
				OFFSET 1.577377 -39.841461 -4.231180
				CHANNELS 3 Zrotation Yrotation Xrotation
				JOINT RightToe
				{
					OFFSET -2.537174 -4.814398 12.334795
					CHANNELS 3 Zrotation Yrotation Xrotation
					End Site
					{
						OFFSET 0.000000 0.000000 0.000000
					}
				}
			}
		}
	}
	JOINT Spine
	{
		OFFSET -0.253288 10.896323 -2.669631
		CHANNELS 3 Zrotation Yrotation Xrotation
		JOINT Spine1
		{
			OFFSET 0.548704 13.518043 0.109247
			CHANNELS 3 Zrotation Yrotation Xrotation
			JOINT Spine2
			{
				OFFSET 0.145701 5.292222 2.542457
				CHANNELS 3 Zrotation Yrotation Xrotation
				JOINT Neck
				{
					OFFSET -0.277840 21.387037 -4.285703
					CHANNELS 3 Zrotation Yrotation Xrotation
					JOINT Head
					{
						OFFSET 0.515184 6.496960 5.134897
						CHANNELS 3 Zrotation Yrotation Xrotation
						End Site
						{
							OFFSET 0.000000 0.000000 0.000000
						}
					}
				}
				JOINT LeftShoulder
				{
					OFFSET 7.884473 12.174932 -3.408961
					CHANNELS 3 Zrotation Yrotation Xrotation
					JOINT LeftArm
					{
						OFFSET 9.097692 3.046888 -0.886815
						CHANNELS 3 Zrotation Yrotation Xrotation
						JOINT LeftForeArm
						{
							OFFSET 25.961220 -1.277207 -2.745643
							CHANNELS 3 Zrotation Yrotation Xrotation
							JOINT LeftHand
							{
								OFFSET 24.923361 0.898606 -0.117091
								CHANNELS 3 Zrotation Yrotation Xrotation
								End Site
								{
									OFFSET 0.000000 0.000000 0.000000
								}
							}
						}
					}
				}
				JOINT RightShoulder
				{
					OFFSET -8.175920 11.883285 -3.861528
					CHANNELS 3 Zrotation Yrotation Xrotation
					JOINT RightArm
					{
						OFFSET -9.601238 3.255117 -0.914307
						CHANNELS 3 Zrotation Yrotation Xrotation
						JOINT RightForeArm
						{
							OFFSET -25.374195 -1.332924 -2.140099
							CHANNELS 3 Zrotation Yrotation Xrotation
							JOINT RightHand
							{
								OFFSET -25.529810 0.777228 -0.555919
								CHANNELS 3 Zrotation Yrotation Xrotation
								End Site
								{
									OFFSET 0.000000 0.000000 0.000000
								}
							}
						}
					}
				}
			}
		}
	}
}
MOTION
Frames: 12
Frame Time: 0.033333
-33.824955 1.442891 91.598961 121.529735 -0.998905 79.009042 17.087262 7.340022 -11.333798 -1.817388 11.502071 28.609569 -7.438152 -1.005789 -9.847791 nan nan nan -18.938777 -11.497425 9.852309 -1.964822 -13.752923 25.131669 -0.467669 -2.979361 -25.118845 nan nan nan 4.362241 4.965836 10.422366 0.478814 -1.169319 10.521937 0.693292 2.909435 -5.677644 -0.919511 19.898053 14.249231 -4.933792 22.270616 21.395563 -16.739019 -13.295084 3.888101 -52.372777 -17.247781 -4.753668 71.559455 -50.634064 -52.914309 17.724707 -25.649578 -36.204294 11.961990 24.528898 4.282003 65.561819 35.007405 21.820062 -92.101062 84.526124 -70.527226 1.289729 24.452451 -35.864733 
-33.804043 1.435686 91.599800 121.564666 -0.945739 78.983143 17.158701 7.369108 -11.336756 -1.811604 11.434728 28.632716 -7.407299 -1.026174 -9.838452 nan nan nan -18.875580 -11.536582 9.910214 -1.946492 -13.663146 25.099045 -0.449927 -2.998211 -25.148646 nan nan nan 4.384149 4.960946 10.437932 0.448332 -1.154883 10.431723 0.743701 2.905771 -5.574474 -0.945867 19.836893 14.141777 -4.830196 22.337574 21.511040 -16.710900 -13.312009 3.868933 -52.436282 -17.267342 -4.764270 71.490483 -50.667107 -52.706983 17.770863 -25.584880 -36.226231 12.015212 24.580922 4.342475 65.326425 35.051188 21.597467 -91.902927 84.571216 -70.365569 1.320184 24.475491 -35.904734 
-33.775703 1.429034 91.600883 121.606805 -0.908301 78.985014 17.203131 7.395496 -11.337747 -1.830079 11.350857 28.616586 -7.417007 -1.087814 -9.814398 nan nan nan -18.825287 -11.572485 9.960757 -1.913197 -13.560475 25.034495 -0.415929 -2.978889 -25.165736 nan nan nan 4.371788 4.969511 10.364033 0.438477 -1.151278 10.433680 0.786841 2.907021 -5.514887 -0.958358 19.755632 14.087912 -4.742836 22.403447 21.600214 -16.732201 -13.342951 3.861894 -52.466530 -17.272483 -4.774459 71.488233 -50.671346 -52.596001 17.812454 -25.563537 -36.068771 12.101567 24.642081 4.422271 65.027581 35.105166 21.334667 -91.093227 84.551488 -69.586479 1.643401 24.523518 -35.738754 
-33.744484 1.415661 91.588837 121.566649 -0.901420 79.027245 17.246489 7.438836 -11.325924 -1.879523 11.328473 28.593123 -7.483688 -1.088344 -9.775734 nan nan nan -18.797934 -11.608395 9.906903 -1.887529 -13.484434 25.036421 -0.384843 -2.996358 -25.214358 nan nan nan 4.300970 5.028325 10.272157 0.452978 -1.115297 10.451490 0.823135 2.906135 -5.485749 -0.944398 19.727994 14.011029 -4.674804 22.418695 21.658930 -16.720756 -13.339730 3.842531 -52.536370 -17.282570 -4.720910 71.514129 -50.703924 -52.571134 18.472261 -25.397801 -35.926762 12.204638 24.662061 4.472353 64.850999 35.114056 21.203281 -90.441330 84.531258 -68.951586 1.498949 24.548656 -35.442054 
-33.704357 1.402413 91.576042 121.493802 -0.923595 79.027831 17.278367 7.491857 -11.257271 -1.935883 11.323748 28.571291 -7.526270 -1.051884 -9.811805 nan nan nan -18.822035 -11.634515 9.881208 -1.841144 -13.358572 25.066287 -0.402477 -3.040281 -25.332156 nan nan nan 4.233492 5.127516 10.227832 0.455834 -1.062607 10.525791 0.836198 2.892896 -5.508208 -0.919990 19.726095 13.934866 -4.628091 22.378092 21.688099 -16.670527 -13.370928 3.840820 -52.574885 -17.268900 -4.642072 71.451940 -50.797900 -52.503596 19.221789 -25.186851 -35.956407 12.248457 24.688680 4.498614 64.736950 35.105553 21.105311 -89.623330 84.476332 -68.134250 1.211699 24.544385 -35.167996 
-33.655659 1.384375 91.556534 121.453186 -0.967104 79.071790 17.279036 7.467274 -11.226751 -1.956922 11.397615 28.507158 -7.546534 -1.003148 -9.815442 nan nan nan -18.880245 -11.672059 9.821532 -1.744337 -13.230967 25.098127 -0.518301 -3.107973 -25.523049 nan nan nan 4.149872 5.218844 10.093952 0.442212 -1.039099 10.726084 0.817849 2.891796 -5.617608 -0.855955 19.758515 13.881248 -4.610267 22.302673 21.647878 -16.520842 -13.378927 3.816859 -52.670113 -17.273522 -4.574485 71.344941 -50.968268 -52.276460 19.130234 -25.207595 -36.298340 12.160068 24.728476 4.549712 64.713849 35.200210 21.004424 -88.615550 84.311913 -66.986483 1.384870 24.636313 -34.959972 
-33.612564 1.369701 91.534866 121.461592 -0.965082 79.155946 17.314583 7.403306 -11.270186 -1.975659 11.462852 28.467576 -7.478580 -0.983540 -9.822521 nan nan nan -18.871017 -11.715866 9.729102 -1.647612 -13.134559 25.144174 -0.625690 -3.162892 -25.663388 nan nan nan 4.079614 5.239970 9.879558 0.457625 -1.033692 10.895274 0.807908 2.930583 -5.655764 -0.812920 19.760833 13.846013 -4.597228 22.259750 21.632364 -16.436563 -13.359886 3.769971 -52.794242 -17.379794 -4.488476 71.171758 -51.037059 -51.962001 18.854769 -25.280898 -36.615563 12.124948 24.758790 4.670056 64.534103 35.377300 20.840444 -87.551301 84.143021 -65.769201 1.597863 24.722744 -34.817495 
-33.579189 1.355195 91.528046 121.451116 -0.960244 79.224331 17.333686 7.366277 -11.278817 -1.988731 11.476424 28.378835 -7.389194 -1.026359 -9.791887 nan nan nan -18.824712 -11.716010 9.639882 -1.548962 -13.014308 25.176093 -0.715407 -3.280289 -25.744641 nan nan nan 3.994474 5.252835 9.737813 0.484998 -1.006974 10.938658 0.830341 2.969136 -5.646422 -0.792094 19.709052 13.843356 -4.575537 22.260283 21.637149 -16.433880 -13.327851 3.756894 -52.896883 -17.508656 -4.395161 70.975018 -51.073101 -51.694006 19.055666 -25.214875 -36.793123 12.133969 24.797007 4.828480 64.267011 35.491836 20.668131 -86.357270 83.989425 -64.518150 1.381509 24.792797 -34.642072 
-33.557819 1.336949 91.519493 121.450994 -0.959170 79.308682 17.339709 7.352464 -11.327724 -2.008975 11.443535 28.314714 -7.316436 -1.029653 -9.861872 nan nan nan -18.767763 -11.695745 9.536550 -1.499971 -12.944101 25.209555 -0.768717 -3.366774 -25.825897 nan nan nan 3.919751 5.277297 9.721572 0.490553 -0.964302 10.819571 0.839752 2.989609 -5.610186 -0.750632 19.638267 13.769741 -4.543976 22.242168 21.697153 -16.407088 -13.261309 3.708701 -52.991402 -17.604830 -4.286708 70.829083 -51.152957 -51.487872 19.190629 -25.108523 -36.867030 12.059572 24.733916 4.841323 64.136426 35.502690 20.541290 -85.153291 83.799824 -63.262096 1.424553 24.881177 -34.429990 
-33.540699 1.312086 91.504135 121.408939 -0.971669 79.403832 17.347621 7.355871 -11.368934 -2.000438 11.483915 28.275764 -7.292041 -1.039043 -9.913285 nan nan nan -18.732169 -11.691171 9.401144 -1.474280 -12.868503 25.243955 -0.835993 -3.380872 -25.986732 nan nan nan 3.844383 5.323311 9.682788 0.499297 -0.899374 10.747914 0.851842 3.022695 -5.578439 -0.753802 19.582032 13.625692 -4.548438 22.185206 21.704196 -16.338897 -13.204904 3.639404 -53.162327 -17.717828 -4.150590 70.762267 -51.183424 -51.350502 19.298140 -25.038046 -36.981583 11.936884 24.644608 4.813850 63.881873 35.525797 20.316543 -84.054614 83.617411 -62.051501 1.682644 25.010260 -34.054659 
-33.515865 1.276405 91.477913 121.300522 -0.988348 79.522145 17.386432 7.366866 -11.420803 -1.987410 11.601592 28.263048 -7.279449 -1.037837 -9.904154 nan nan nan -18.694696 -11.713348 9.190262 -1.453750 -12.734940 25.350772 -0.895920 -3.331118 -26.214958 nan nan nan 3.771946 5.439769 9.558747 0.506177 -0.804896 10.754270 0.851536 3.055360 -5.530904 -0.698258 19.568038 13.502914 -4.546911 22.076149 21.645864 -16.230700 -13.178661 3.544669 -53.312490 -17.815414 -3.996174 70.723917 -51.287815 -51.307695 19.537365 -24.912940 -37.024513 11.829226 24.506042 4.768346 63.539285 35.510640 20.094920 -83.487565 83.530782 -61.234901 1.732875 24.807593 -33.272412 
-33.474091 1.249024 91.454262 121.226082 -0.985732 79.629933 17.467393 7.393931 -11.434784 -2.022237 11.717079 28.196751 -7.273435 -1.081746 -9.905138 nan nan nan -18.641017 -11.739340 9.024293 -1.403091 -12.591843 25.434369 -0.922742 -3.354379 -26.386046 nan nan nan 3.689297 5.562355 9.412899 0.525754 -0.735397 10.765169 0.869624 3.052738 -5.505174 -0.613794 19.549847 13.463838 -4.534573 22.048721 21.583624 -16.152266 -13.114321 3.460297 -53.466010 -17.950575 -3.906588 70.670444 -51.414943 -51.146843 19.516419 -24.872233 -36.839856 11.821894 24.345381 4.826505 63.064478 35.493915 19.755922 -82.631465 83.472810 -60.016079 2.370552 24.579835 -32.193623 
